<mxfile host="Electron" agent="Mozilla/5.0 (Windows NT 10.0; Win64; x64) AppleWebKit/537.36 (KHTML, like Gecko) draw.io/26.2.2 Chrome/134.0.6998.178 Electron/35.1.2 Safari/537.36" version="26.2.2">
  <diagram id="nfCWUoTKI2iozPqYA268" name="Página-1">
    <mxGraphModel dx="874" dy="537" grid="1" gridSize="10" guides="1" tooltips="1" connect="1" arrows="1" fold="1" page="1" pageScale="1" pageWidth="827" pageHeight="1169" math="0" shadow="0">
      <root>
        <mxCell id="0" />
        <mxCell id="1" parent="0" />
        <mxCell id="mXxqPwpJpwYbD_vYGIO1-3" style="edgeStyle=orthogonalEdgeStyle;rounded=0;orthogonalLoop=1;jettySize=auto;html=1;entryX=0.5;entryY=0;entryDx=0;entryDy=0;" parent="1" source="mXxqPwpJpwYbD_vYGIO1-1" target="mXxqPwpJpwYbD_vYGIO1-2" edge="1">
          <mxGeometry relative="1" as="geometry" />
        </mxCell>
        <mxCell id="mXxqPwpJpwYbD_vYGIO1-1" value="Inicio" style="rounded=1;whiteSpace=wrap;html=1;fillColor=#a20025;fontColor=#ffffff;strokeColor=#6F0000;" parent="1" vertex="1">
          <mxGeometry x="241" y="20" width="120" height="60" as="geometry" />
        </mxCell>
        <mxCell id="mXxqPwpJpwYbD_vYGIO1-5" style="edgeStyle=orthogonalEdgeStyle;rounded=0;orthogonalLoop=1;jettySize=auto;html=1;entryX=0.5;entryY=0;entryDx=0;entryDy=0;" parent="1" source="mXxqPwpJpwYbD_vYGIO1-2" target="mXxqPwpJpwYbD_vYGIO1-4" edge="1">
          <mxGeometry relative="1" as="geometry" />
        </mxCell>
        <mxCell id="mXxqPwpJpwYbD_vYGIO1-2" value="Gerar comprovante" style="rounded=0;whiteSpace=wrap;html=1;fillColor=#a20025;fontColor=#ffffff;strokeColor=#6F0000;" parent="1" vertex="1">
          <mxGeometry x="241" y="140" width="120" height="60" as="geometry" />
        </mxCell>
        <mxCell id="mXxqPwpJpwYbD_vYGIO1-6" style="edgeStyle=orthogonalEdgeStyle;rounded=0;orthogonalLoop=1;jettySize=auto;html=1;" parent="1" source="mXxqPwpJpwYbD_vYGIO1-4" target="mXxqPwpJpwYbD_vYGIO1-7" edge="1">
          <mxGeometry relative="1" as="geometry">
            <mxPoint x="151" y="325" as="targetPoint" />
          </mxGeometry>
        </mxCell>
        <mxCell id="mXxqPwpJpwYbD_vYGIO1-9" style="edgeStyle=orthogonalEdgeStyle;rounded=0;orthogonalLoop=1;jettySize=auto;html=1;" parent="1" source="mXxqPwpJpwYbD_vYGIO1-4" target="mXxqPwpJpwYbD_vYGIO1-10" edge="1">
          <mxGeometry relative="1" as="geometry">
            <mxPoint x="481" y="325" as="targetPoint" />
          </mxGeometry>
        </mxCell>
        <mxCell id="mXxqPwpJpwYbD_vYGIO1-4" value="Venda&lt;br&gt;cadastrada?" style="rhombus;whiteSpace=wrap;html=1;fillColor=#1ba1e2;fontColor=#ffffff;strokeColor=#006EAF;" parent="1" vertex="1">
          <mxGeometry x="236" y="260" width="130" height="130" as="geometry" />
        </mxCell>
        <mxCell id="mXxqPwpJpwYbD_vYGIO1-12" style="edgeStyle=orthogonalEdgeStyle;rounded=0;orthogonalLoop=1;jettySize=auto;html=1;" parent="1" source="mXxqPwpJpwYbD_vYGIO1-7" edge="1">
          <mxGeometry relative="1" as="geometry">
            <mxPoint x="511" y="360" as="targetPoint" />
          </mxGeometry>
        </mxCell>
        <mxCell id="mXxqPwpJpwYbD_vYGIO1-7" value="Não gerar comprovante" style="rounded=0;whiteSpace=wrap;html=1;fillColor=#a20025;fontColor=#ffffff;strokeColor=#6F0000;" parent="1" vertex="1">
          <mxGeometry x="241" y="460" width="120" height="60" as="geometry" />
        </mxCell>
        <mxCell id="mXxqPwpJpwYbD_vYGIO1-8" value="NAO" style="text;html=1;align=center;verticalAlign=middle;resizable=0;points=[];autosize=1;strokeColor=none;fillColor=none;" parent="1" vertex="1">
          <mxGeometry x="311" y="410" width="40" height="20" as="geometry" />
        </mxCell>
        <mxCell id="mXxqPwpJpwYbD_vYGIO1-13" style="edgeStyle=orthogonalEdgeStyle;rounded=0;orthogonalLoop=1;jettySize=auto;html=1;" parent="1" source="mXxqPwpJpwYbD_vYGIO1-10" target="mXxqPwpJpwYbD_vYGIO1-14" edge="1">
          <mxGeometry relative="1" as="geometry">
            <mxPoint x="651" y="325" as="targetPoint" />
          </mxGeometry>
        </mxCell>
        <mxCell id="mXxqPwpJpwYbD_vYGIO1-10" value="Gerar PDF" style="rounded=0;whiteSpace=wrap;html=1;fillColor=#a20025;fontColor=#ffffff;strokeColor=#6F0000;" parent="1" vertex="1">
          <mxGeometry x="451" y="295" width="120" height="60" as="geometry" />
        </mxCell>
        <mxCell id="mXxqPwpJpwYbD_vYGIO1-11" value="SIM" style="text;html=1;align=center;verticalAlign=middle;resizable=0;points=[];autosize=1;strokeColor=none;fillColor=none;" parent="1" vertex="1">
          <mxGeometry x="381" y="335" width="40" height="20" as="geometry" />
        </mxCell>
        <mxCell id="mXxqPwpJpwYbD_vYGIO1-14" value="Fim" style="rounded=1;whiteSpace=wrap;html=1;fillColor=#a20025;fontColor=#ffffff;strokeColor=#6F0000;" parent="1" vertex="1">
          <mxGeometry x="641" y="295" width="120" height="60" as="geometry" />
        </mxCell>
        <mxCell id="mXxqPwpJpwYbD_vYGIO1-15" value="&lt;p style=&quot;margin-bottom: 0.25cm ; line-height: 1.15px ; background: transparent&quot;&gt;&lt;font style=&quot;font-size: 18px&quot;&gt;&lt;font&gt;&lt;font face=&quot;Liberation Sans, sans-serif&quot;&gt;RF-015 &lt;/font&gt;&lt;font face=&quot;liberation sans, sans-serif&quot;&gt;Gerar comprovante de venda em PDF&lt;/font&gt;&lt;/font&gt;&lt;/font&gt;&lt;/p&gt;" style="text;html=1;align=center;verticalAlign=middle;resizable=0;points=[];autosize=1;fillColor=#f5f5f5;fontColor=#333333;strokeColor=#666666;" parent="1" vertex="1">
          <mxGeometry x="410" y="10" width="390" height="30" as="geometry" />
        </mxCell>
      </root>
    </mxGraphModel>
  </diagram>
</mxfile>
